<svg xmlns="http://www.w3.org/2000/svg" viewBox="0 0 12 48"><circle cx="6" cy="6" r="5.5" fill="#FFBE2E"/><circle cx="6" cy="6" r="5.5" fill="none" stroke="#E09E1F" stroke-miterlimit="10"/><circle cx="6" cy="42" r="5.5" fill="#DEDEDE"/><circle cx="6" cy="42" r="5.5" fill="none" stroke="#CFCFCF" stroke-miterlimit="10"/><circle cx="6" cy="18" r="5.5" fill="#FFBE2E"/><circle cx="6" cy="18" r="5.5" fill="none" stroke="#E09E1F" stroke-miterlimit="10"/><path fill="#995700" d="M9,19H3c-0.6,0-1-0.4-1-1v0c0-0.6,0.4-1,1-1h6c0.6,0,1,0.4,1,1v0C10,18.6,9.6,19,9,19z"/><circle cx="6" cy="30" r="5.5" fill="#BF8F23"/><circle cx="6" cy="30" r="5.5" fill="none" stroke="#B37E18" stroke-miterlimit="10"/><path fill="#995700" d="M9,31H3c-0.6,0-1-0.4-1-1v0c0-0.6,0.4-1,1-1h6c0.6,0,1,0.4,1,1v0C10,30.6,9.6,31,9,31z"/></svg>