<svg xmlns="http://www.w3.org/2000/svg" viewBox="0 0 24 96"><g><circle cx="12" cy="12" r="11.5" fill="#FFBE2E"/><circle cx="12" cy="12" r="11.5" fill="none" stroke="#E09E1F" stroke-miterlimit="10"/></g><g><circle cx="12" cy="36" r="11.5" fill="#FFBE2E"/><circle cx="12" cy="36" r="11.5" fill="none" stroke="#E09E1F" stroke-miterlimit="10"/><path fill="#995700" d="M19,37H5c-0.6,0-1-0.4-1-1l0,0c0-0.6,0.4-1,1-1h14c0.6,0,1,0.4,1,1l0,0C20,36.6,19.6,37,19,37z"/></g><g><circle cx="12" cy="60" r="11.5" fill="#BF8F23"/><circle cx="12" cy="60" r="11.5" fill="none" stroke="#B37E18" stroke-miterlimit="10"/><path fill="#995700" d="M19,61H5c-0.6,0-1-0.4-1-1l0,0c0-0.6,0.4-1,1-1h14c0.6,0,1,0.4,1,1l0,0C20,60.6,19.6,61,19,61z"/></g><g><circle cx="12" cy="84" r="11.5" fill="#DEDEDE"/><circle cx="12" cy="84" r="11.5" fill="none" stroke="#CFCFCF" stroke-miterlimit="10"/></g></svg>